<?xml version="1.0" standalone="no"?>
<!DOCTYPE svg PUBLIC "-//W3C//DTD SVG 20010904//EN"
 "http://www.w3.org/TR/2001/REC-SVG-20010904/DTD/svg10.dtd">
<svg version="1.0" xmlns="http://www.w3.org/2000/svg"
 width="64.000000pt" height="64.000000pt" viewBox="0 0 64.000000 64.000000"
 preserveAspectRatio="xMidYMid meet">

<g transform="translate(0.000000,64.000000) scale(0.100000,-0.100000)"
fill="currentColor" stroke="none">
<path d="M204 609 c-71 -27 -137 -88 -171 -157 -24 -49 -28 -69 -28 -142 0
-72 4 -92 27 -135 31 -60 89 -120 140 -146 55 -28 68 -25 68 16 0 33 -2 35
-35 35 -35 0 -42 5 -90 66 -44 56 -23 62 31 9 40 -41 76 -45 98 -13 15 22 14
23 -35 41 -65 24 -89 61 -89 138 0 32 6 63 14 74 8 11 12 33 10 50 -8 50 7 61
58 43 53 -18 198 -17 246 3 28 12 34 12 43 -1 5 -8 8 -29 5 -45 -2 -17 2 -39
10 -50 8 -11 14 -42 14 -74 0 -77 -24 -115 -89 -137 -42 -15 -48 -21 -40 -35
5 -10 9 -45 9 -78 0 -69 7 -73 68 -42 51 26 109 86 140 146 23 43 27 63 27
135 0 73 -4 93 -28 142 -72 146 -250 216 -403 157z"/>
</g>
</svg>
